<?xml version="1.0" encoding="utf-8"?>
<!-- Generator: Adobe Illustrator 28.1.0, SVG Export Plug-In . SVG Version: 6.00 Build 0)  -->
<svg version="1.1" id="レイヤー_1" xmlns="http://www.w3.org/2000/svg" xmlns:xlink="http://www.w3.org/1999/xlink" x="0px"
	 y="0px" viewBox="0 0 40 40" style="enable-background:new 0 0 40 40;" xml:space="preserve">
<style type="text/css">
	.st0{fill:#FFFFFF;}
	.st1{fill:#CE0000;}
</style>
<g>
	<g>
		<g>
			<g>
				<path d="M20,14.7c-0.6,0-1.2-0.6-1.2-1.2v-5c0-0.6,0.6-1.2,1.2-1.2s1.2,0.6,1.2,1.2v5C21.2,14.1,20.6,14.7,20,14.7z"/>
			</g>
		</g>
	</g>
	<g>
		<path d="M20,2.2c-5.5,0-10,4.5-10,10v7.6c0,5,3.8,9.2,8.6,9.9v-2.4c-3.5-0.7-6.2-3.8-6.2-7.5v-7.6c0-4.2,3.5-7.6,7.6-7.6
			s7.6,3.5,7.6,7.6v7.6c0,3.6-2.6,6.7-6.1,7.5v2.4c4.8-0.8,8.4-4.9,8.4-9.9v-7.6C30,6.7,25.5,2.2,20,2.2z"/>
	</g>
</g>
<path d="M20,37.6c-0.2,0-0.3,0-0.4-0.1s-0.2-0.2-0.4-0.2l-5.5-5.5c-0.2-0.2-0.3-0.5-0.3-0.8s0.1-0.6,0.3-0.8
	c0.2-0.2,0.5-0.3,0.8-0.3s0.6,0.1,0.8,0.3l3.7,3.7v-8.4c0-0.6,0.5-1.1,1.1-1.1c0.6,0,1.1,0.5,1.1,1.1v8.4l3.5-3.7
	c0.2-0.2,0.5-0.3,0.8-0.3s0.6,0.1,0.8,0.3c0.2,0.2,0.3,0.5,0.3,0.8s-0.1,0.6-0.3,0.8l-5.5,5.5c-0.1,0.1-0.2,0.2-0.3,0.2
	C20.3,37.5,20.2,37.6,20,37.6z"/>
<g>
	<g>
		<g>
			<path class="st0" d="M33.3,31.5c-0.4,0-0.8-0.1-1.1-0.4L5.7,7.2C5.4,6.9,5.2,6.5,5.2,6.2c0-0.4,0.1-0.8,0.4-1.1
				c0.3-0.3,0.7-0.5,1.1-0.5c0.4,0,0.8,0.1,1.1,0.4l26.5,23.9c0.3,0.3,0.5,0.7,0.5,1.1s-0.1,0.8-0.4,1.1
				C34.1,31.3,33.7,31.5,33.3,31.5z"/>
		</g>
	</g>
	<g>
		<g>
			<path class="st1" d="M33.3,33.5c-0.4,0-0.8-0.1-1.1-0.4L5.7,9.2C5.4,8.9,5.2,8.5,5.2,8.2c0-0.4,0.1-0.8,0.4-1.1
				c0.3-0.3,0.7-0.5,1.1-0.5c0.4,0,0.8,0.1,1.1,0.4l26.5,23.9c0.3,0.3,0.5,0.7,0.5,1.1s-0.1,0.8-0.4,1.1
				C34.1,33.3,33.7,33.5,33.3,33.5z"/>
		</g>
	</g>
</g>
</svg>
